inDegrees=yes
name=ik_S40_A13_T01
DataType=double
version=3
OpenSimVersion=4.3-2021-08-27-4bc7ad9
endheader
time	pelvis_tilt	pelvis_list	pelvis_rotation	pelvis_tx	pelvis_ty	pelvis_tz	hip_flexion_r	hip_adduction_r	hip_rotation_r	knee_angle_r	knee_angle_r_beta	ankle_angle_r	subtalar_angle_r	mtp_angle_r	hip_flexion_l	hip_adduction_l	hip_rotation_l	knee_angle_l	knee_angle_l_beta	ankle_angle_l	subtalar_angle_l	mtp_angle_l	lumbar_extension	lumbar_bending	lumbar_rotation	arm_flex_r	arm_add_r	arm_rot_r	elbow_flex_r	pro_sup_r	wrist_flex_r	wrist_dev_r	arm_flex_l	arm_add_l	arm_rot_l	elbow_flex_l	pro_sup_l	wrist_flex_l	wrist_dev_l
0	0	0	0	0	0.9399999999999999	0	0	0	0	0	0	0	0	0	0	0	0	0	0	0	0	0	0	0	0	0	0	0	0	89.99999999963507	0	0	0	0	0	0	89.99999999869995	0	0
0.02	-0.9921646356398545	-1.305006568409433	28.56114161338365	0	0.9399999999999999	0	1.939832353296058	-0.9152516613063898	-0.6527567187763759	3.020875874672648	0.05272423030710129	0	0	0	1.939832353296058	-0.9152516613063898	-0.6527567187763759	3.020875874672648	0.05272423030710129	0	0	0	-0.2578897795800144	0.1717237321468515	12.10796584225902	15.73059208298824	-1.43327633305706	8.063523017108563	6.236910374655418	147.9252325229787	0	0	15.51312330202029	5.41196353183779	8.119867591797947	2.889476439281026	130.0263019485378	0	0
0.04	-0.9987967902263423	-1.287100093417964	28.70068749805366	0	0.9399999999999999	0	3.292783730055355	-1.548963148255007	-1.139101932765157	4.447152241592771	0.07761744895324016	0	0	0	3.292783730055355	-1.548963148255007	-1.139101932765157	4.447152241592771	0.07761744895324016	0	0	0	-0.2784614496971514	0.159812807298618	11.9533159101416	15.74834007146988	-1.447616562919316	8.077427250757541	6.304830680174942	147.9249836310948	0	0	15.50965911060695	5.418474165490244	8.194664756962295	2.855783441492583	129.9425317205846	0	0
0.06	-0.9972804067121567	-1.284853484420268	28.7275590581581	0	0.9399999999999999	0	3.447376466402412	-1.615609428312044	-1.194427980194663	4.575871794243062	0.07986402895868193	0	0	0	3.447376466402412	-1.615609428312044	-1.194427980194663	4.575871794243062	0.07986402895868193	0	0	0	-0.2791812919014322	0.1588145521396002	11.92649205172628	15.70938428646763	-1.441512943494768	8.075954964093551	6.33558934939575	147.9206978241083	0	0	15.51192741460181	5.42238473855187	8.190561926512816	2.865502700607878	129.9716759072467	0	0
0.08	-1.001658246009063	-1.281369834806958	28.84469771520585	0	0.9399999999999999	0	4.645349561018537	-2.150732901883299	-1.617327173429565	5.770850130130586	0.1007203354099219	0	0	0	4.645349561018537	-2.150732901883299	-1.617327173429565	5.770850130130586	0.1007203354099219	0	0	0	-0.3067541708573583	0.1476445814251249	11.78412370497581	15.74360727623789	-1.420640090728028	8.10022266011052	6.323167982987427	147.9216194529385	0	0	15.54143852142094	5.428423653718838	8.174209095106312	2.861875198555749	129.9793355787034	0	0
0.1	-0.9810201952095174	-1.267978363762829	28.96670089376716	0	0.9399999999999999	0	5.735930712633682	-2.615309273067168	-1.995206276308959	6.826257924112431	0.1191406763661151	0	0	0	5.735930712633682	-2.615309273067168	-1.995206276308959	6.826257924112431	0.1191406763661151	0	0	0	-0.3036926722381625	0.1325859948895867	11.64230533188924	15.70470311562444	-1.432412064529323	8.113376882416066	6.345281790026467	147.9011134775231	0	0	15.4944700552853	5.390397555266356	8.176741334817132	2.863789579536611	129.9481844643671	0	0
0.12	-0.9837998453349522	-1.25803506648794	29.06456719773765	0	0.9399999999999999	0	6.600500764596597	-2.976378443652504	-2.290309228858835	7.676917718289582	0.1339874905888437	0	0	0	6.600500764596597	-2.976378443652504	-2.290309228858835	7.676917718289582	0.1339874905888437	0	0	0	-0.3189639054009105	0.1284741512731523	11.53071517551069	15.70845578476451	-1.433820502284918	8.126485508242757	6.338849024067324	147.8736117415236	0	0	15.49711649356723	5.396996078203423	8.20899295683291	2.874838120700452	129.9098768771809	0	0
0.14	-0.9798938635621511	-1.252575101840428	29.15614659500978	0	0.9399999999999999	0	7.455363804226444	-3.325577205254455	-2.578360259268563	8.523297768021401	0.1487596091798573	0	0	0	7.455363804226444	-3.325577205254455	-2.578360259268563	8.523297768021401	0.1487596091798573	0	0	0	-0.3304626901428283	0.1182905842767895	11.42707881612965	15.7098608191466	-1.429117662651164	8.131023945661161	6.346873472166094	147.8635737989427	0	0	15.49839729168297	5.394964441955088	8.20257894377197	2.876898327778326	129.9196676676955	0	0
